<svg xmlns="http://www.w3.org/2000/svg" viewBox="0 0 311.2 89.45"><defs><style>.cls-1{fill:#fff;}.cls-2{fill:#ececec;opacity:0.5;}.cls-3{fill:#5d808c;}.cls-4{fill:#adadad;}.cls-5{fill:#dc000f;}.cls-6{fill:#d3d3d3;}.cls-7{fill:#ff2e65;}.cls-8{fill:#ff1f5a;}.cls-9{opacity:0.8;}</style></defs><title>Recurso 1</title><g id="Capa_2" data-name="Capa 2"><g id="Capa_1-2" data-name="Capa 1"><path class="cls-1" d="M.89,31.92l12.24-3.85a7,7,0,0,1,3.11-.24h0a7.12,7.12,0,0,1,2.78,1.05c7.38,4.82,44.55,29,47.89,29.43C78,59.86,84.46,56.55,95,53.11S252.16,4.57,263,2.53s21.36-4.77,34,2.75c0,0,11.89,0,13.72,5.64S301.16,24,286,29.57,185.79,61.84,185.79,61.84,116.2,82,97.57,84.72s-83.86,4.39-83.86,4.39l-1.4-4.47s11.06-6.32,16.48-8.79Z"/><path class="cls-2" d="M13.77,30.09a7,7,0,0,1,3.11-.24h0a6.94,6.94,0,0,1,2.77,1.06c7.38,4.81,44.56,29,47.89,29.42,11.09,1.55,17.52-1.76,28.06-5.2S252.8,6.59,263.59,4.55s21.36-4.77,34,2.76c0,0,10.47,0,13.27,4.66a4.14,4.14,0,0,0-.19-1.05c-1.83-5.62-13.72-5.64-13.72-5.64C284.31-2.24,273.74.5,263,2.53S105.54,49.66,95,53.11s-17,6.75-28.06,5.2C63.6,57.84,26.43,33.7,19.05,28.88a7.12,7.12,0,0,0-2.78-1.05h0a7,7,0,0,0-3.11.24L.89,31.92l1.17,1.85Z"/><path class="cls-3" d="M272.88,23.66l-6.11,1.92a2.56,2.56,0,0,1-3.2-1.67l.64-.2a1.88,1.88,0,0,0,2.36,1.23L272.68,23a1.89,1.89,0,0,0,1.23-2.36l.64-.2A2.54,2.54,0,0,1,272.88,23.66Z"/><path class="cls-4" d="M185.79,61.84S270.92,35.09,286,29.57c13.17-4.81,23.46-11.12,24.69-16.38a7.11,7.11,0,0,0-.77-.67c-4.5,3.4-11.32,6.8-19.17,9.67-15.12,5.52-100.25,32.27-100.25,32.27S121,74.58,102.31,77.34c-14.37,2.12-56.45,3.58-74.95,4.14-5.73,2.89-13.71,7.45-13.71,7.45l.06.18s65.22-1.64,83.86-4.39S185.79,61.84,185.79,61.84Z"/><path class="cls-5" d="M299.93,5.48l4.67,14.88c4.56-3.3,7-6.61,6.06-9.44C309.42,7.11,303.57,5.88,299.93,5.48Z"/><path class="cls-3" d="M304.42,20.9l-5-15.81.51,0c3.55.39,9.71,1.65,11,5.68.92,2.83-1.21,6.22-6.18,9.81Zm-4-15,4.38,13.94c3.18-2.36,6.56-5.71,5.56-8.79C309.2,7.54,303.84,6.31,300.4,5.87Z"/><path class="cls-3" d="M272.44,22.25l-6.11,1.92a1.08,1.08,0,0,1-1.35-.71L260.51,9.24a1.08,1.08,0,0,1,.7-1.35L267.33,6a1.08,1.08,0,0,1,1.35.71l4.46,14.22A1.07,1.07,0,0,1,272.44,22.25Zm-11-13.72a.41.41,0,0,0-.27.51l4.47,14.22a.42.42,0,0,0,.51.27l6.11-1.92a.41.41,0,0,0,.26-.51L268,6.88a.41.41,0,0,0-.5-.27Z"/><path class="cls-3" d="M265.43,15a.47.47,0,1,1-.58-.31A.47.47,0,0,1,265.43,15Z"/><rect class="cls-3" x="266.8" y="14.52" width="0.67" height="1.23" transform="translate(7.75 80.77) rotate(-17.44)"/><path class="cls-3" d="M80.2,82.45l-6.11,1.92a2.55,2.55,0,0,1-3.21-1.67l.65-.2a1.88,1.88,0,0,0,2.36,1.23L80,81.81a1.88,1.88,0,0,0,1.23-2.36l.64-.2A2.56,2.56,0,0,1,80.2,82.45Z"/><path class="cls-3" d="M79.76,81,73.64,83a1.06,1.06,0,0,1-1.34-.7L67.83,68a1.07,1.07,0,0,1,.7-1.35l6.11-1.92a1.08,1.08,0,0,1,1.35.7l4.47,14.22A1.07,1.07,0,0,1,79.76,81Zm-11-13.71a.4.4,0,0,0-.26.5l4.47,14.23a.39.39,0,0,0,.5.26l6.11-1.92a.4.4,0,0,0,.27-.5L75.35,65.67a.4.4,0,0,0-.51-.26Z"/><circle class="cls-3" cx="72.3" cy="73.96" r="0.46"/><path class="cls-3" d="M185.89,62.16h0c-.69.21-69.82,20.16-88.26,22.89s-83.25,4.38-83.9,4.39h-.25l-1.57-5,.24-.13c.11-.06,10.67-6.09,16.16-8.65L.37,31.73l12.66-4a7.34,7.34,0,0,1,6.2.85C39.68,41.93,64.46,57.62,67,58c9.07,1.27,15.07-.76,22.94-3.49,1.58-.55,3.21-1.12,5-1.69l3.33-1.06C122.67,44.05,252.59,4.14,262.89,2.2L265,1.8C274.92-.12,285.16-2.09,297,5c1.21,0,12.12.28,13.94,5.87,2.15,6.59-12,14.39-24.82,19.06C271.2,35.35,186.74,61.89,185.89,62.16ZM14,88.76c4.47-.11,65.74-1.74,83.56-4.38,18.37-2.71,87.29-22.61,88.17-22.86,1.09-.34,85.32-26.82,100.24-32.27C302.15,23.32,312,16,310.34,11c-1.73-5.32-13.28-5.4-13.4-5.4h-.09l-.08,0c-11.69-7-21.38-5.09-31.63-3.11l-2.12.4C253,4.76,122,45,98.42,52.37L95.1,53.43c-1.75.57-3.38,1.14-5,1.68-8,2.76-14,4.82-23.25,3.53-3.32-.46-37.6-22.68-48-29.47a6.44,6.44,0,0,0-2.64-1,6.5,6.5,0,0,0-3,.22L1.41,32.11,29.28,76l-.35.16C24,78.4,14.34,83.87,12.71,84.8Z"/><rect class="cls-3" x="74.12" y="73.31" width="0.67" height="1.23" transform="translate(-18.74 25.72) rotate(-17.44)"/><rect class="cls-3" x="301.93" y="5.12" width="0.67" height="15.6" transform="translate(10.03 91.19) rotate(-17.44)"/><rect class="cls-3" x="303.05" y="14.68" width="7.49" height="0.34" transform="translate(9.66 92.64) rotate(-17.44)"/><rect class="cls-3" x="301.28" y="9.04" width="7.49" height="0.34" transform="translate(11.27 91.85) rotate(-17.44)"/><path class="cls-3" d="M298.52,18.32l-2.11.66a1.07,1.07,0,0,1-1.35-.7l-.67-2.11a1.07,1.07,0,0,1,.71-1.35l2.11-.67a1.08,1.08,0,0,1,1.35.71l.66,2.11A1.07,1.07,0,0,1,298.52,18.32Zm-3.22-2.86a.41.41,0,0,0-.27.5l.67,2.12a.4.4,0,0,0,.5.26l2.12-.66a.41.41,0,0,0,.26-.51l-.66-2.11a.42.42,0,0,0-.51-.27Z"/><rect class="cls-3" x="295.97" y="15.5" width="1.48" height="1.48" transform="translate(8.77 89.68) rotate(-17.44)"/><path class="cls-3" d="M141.23,66.55l-.65.2a1.87,1.87,0,0,0-2.35-1.23L125,69.68A1.88,1.88,0,0,0,123.77,72l-.64.2A2.57,2.57,0,0,1,124.8,69L138,64.88A2.57,2.57,0,0,1,141.23,66.55Z"/><path class="cls-3" d="M142.13,74.36l-.34.09c-5.31,1.43-10.31,2.75-14.85,3.92l-.31.08-2.09-6.66a1.07,1.07,0,0,1,.7-1.34l13.23-4.16a1.08,1.08,0,0,1,1.35.7Zm-15,3.28c4.36-1.13,9.14-2.39,14.2-3.75l-2.11-6.69a.41.41,0,0,0-.5-.27l-13.22,4.16a.4.4,0,0,0-.27.5Z"/><polygon class="cls-3" points="291.61 6.95 288.07 9.08 284.89 5.56 288.06 4.57 291.61 6.95"/><polygon class="cls-3" points="284.12 5.81 287.42 9.46 287.41 9.47 281.26 9.32 280.51 6.94 284.12 5.81"/><polygon class="cls-3" points="288.96 4.29 291.83 3.38 295.87 5.55 292.49 6.66 288.96 4.29"/><polygon class="cls-6" points="53.64 78.22 8.01 80.16 1.19 82.3 26.84 86.64 53.64 78.22"/><path class="cls-3" d="M56.18,77.78,8,79.82l-8,2.5,0,.13L26.86,87ZM8.07,80.49l43-1.82L26.81,86.3,2.63,82.2Z"/><rect class="cls-3" x="17.21" y="70.28" width="0.67" height="26.16" transform="matrix(0.16, -0.99, 0.99, 0.16, -67.56, 87)"/><rect class="cls-3" x="256.94" y="16.87" width="1.72" height="2.68" rx="0.74" transform="translate(6.4 78.11) rotate(-17.44)"/><rect class="cls-3" x="252.71" y="18.2" width="1.72" height="2.68" rx="0.74" transform="translate(5.8 76.9) rotate(-17.44)"/><rect class="cls-3" x="248.48" y="19.53" width="1.72" height="2.68" rx="0.74" transform="translate(5.21 75.7) rotate(-17.44)"/><rect class="cls-3" x="244.25" y="20.86" width="1.72" height="2.68" rx="0.74" transform="translate(4.62 74.49) rotate(-17.44)"/><rect class="cls-3" x="240.02" y="22.19" width="1.72" height="2.68" rx="0.74" transform="translate(4.02 73.28) rotate(-17.44)"/><rect class="cls-3" x="235.78" y="23.52" width="1.72" height="2.68" rx="0.74" transform="translate(3.43 72.08) rotate(-17.44)"/><rect class="cls-3" x="231.55" y="24.85" width="1.72" height="2.68" rx="0.74" transform="translate(2.84 70.87) rotate(-17.44)"/><rect class="cls-3" x="227.32" y="26.18" width="1.72" height="2.68" rx="0.74" transform="translate(2.24 69.66) rotate(-17.44)"/><rect class="cls-3" x="223.09" y="27.51" width="1.72" height="2.68" rx="0.74" transform="translate(1.65 68.45) rotate(-17.44)"/><rect class="cls-3" x="218.86" y="28.84" width="1.72" height="2.68" rx="0.74" transform="translate(1.06 67.25) rotate(-17.44)"/><rect class="cls-3" x="214.63" y="30.17" width="1.72" height="2.68" rx="0.74" transform="translate(0.46 66.04) rotate(-17.44)"/><rect class="cls-3" x="210.39" y="31.5" width="1.72" height="2.68" rx="0.74" transform="translate(-0.13 64.83) rotate(-17.44)"/><rect class="cls-3" x="206.16" y="32.83" width="1.72" height="2.68" rx="0.74" transform="translate(-0.72 63.62) rotate(-17.44)"/><rect class="cls-3" x="201.93" y="34.16" width="1.72" height="2.68" rx="0.74" transform="translate(-1.32 62.42) rotate(-17.44)"/><rect class="cls-3" x="197.7" y="35.48" width="1.72" height="2.68" rx="0.74" transform="translate(-1.91 61.21) rotate(-17.44)"/><rect class="cls-3" x="193.47" y="36.81" width="1.72" height="2.68" rx="0.74" transform="translate(-2.5 60) rotate(-17.44)"/><rect class="cls-3" x="189.24" y="38.14" width="1.72" height="2.68" rx="0.74" transform="translate(-3.09 58.8) rotate(-17.44)"/><rect class="cls-3" x="185" y="39.47" width="1.72" height="2.68" rx="0.74" transform="translate(-3.69 57.59) rotate(-17.44)"/><rect class="cls-3" x="180.77" y="40.8" width="1.72" height="2.68" rx="0.74" transform="translate(-4.28 56.38) rotate(-17.44)"/><rect class="cls-3" x="176.54" y="42.13" width="1.72" height="2.68" rx="0.74" transform="translate(-4.87 55.17) rotate(-17.44)"/><rect class="cls-3" x="172.31" y="43.46" width="1.72" height="2.68" rx="0.74" transform="translate(-5.47 53.97) rotate(-17.44)"/><rect class="cls-3" x="168.08" y="44.79" width="1.72" height="2.68" rx="0.74" transform="translate(-6.06 52.76) rotate(-17.44)"/><rect class="cls-3" x="163.85" y="46.12" width="1.72" height="2.68" rx="0.74" transform="translate(-6.65 51.55) rotate(-17.44)"/><rect class="cls-3" x="159.62" y="47.45" width="1.72" height="2.68" rx="0.74" transform="translate(-7.25 50.35) rotate(-17.44)"/><rect class="cls-3" x="155.38" y="48.78" width="1.72" height="2.68" rx="0.74" transform="translate(-7.84 49.14) rotate(-17.44)"/><rect class="cls-3" x="151.15" y="50.11" width="1.72" height="2.68" rx="0.74" transform="translate(-8.43 47.93) rotate(-17.44)"/><rect class="cls-3" x="146.92" y="51.44" width="1.72" height="2.68" rx="0.74" transform="translate(-9.03 46.72) rotate(-17.44)"/><rect class="cls-3" x="142.69" y="52.77" width="1.72" height="2.68" rx="0.74" transform="translate(-9.62 45.52) rotate(-17.44)"/><rect class="cls-3" x="138.46" y="54.1" width="1.72" height="2.68" rx="0.74" transform="translate(-10.21 44.31) rotate(-17.44)"/><rect class="cls-3" x="134.23" y="55.43" width="1.72" height="2.68" rx="0.74" transform="translate(-10.8 43.1) rotate(-17.44)"/><rect class="cls-3" x="129.99" y="56.76" width="1.72" height="2.68" rx="0.74" transform="matrix(0.95, -0.3, 0.3, 0.95, -11.4, 41.89)"/><rect class="cls-3" x="125.76" y="58.09" width="1.72" height="2.68" rx="0.74" transform="translate(-11.99 40.69) rotate(-17.44)"/><rect class="cls-3" x="121.53" y="59.42" width="1.72" height="2.68" rx="0.74" transform="translate(-12.58 39.48) rotate(-17.44)"/><rect class="cls-3" x="117.3" y="60.75" width="1.72" height="2.68" rx="0.74" transform="translate(-13.18 38.27) rotate(-17.44)"/><rect class="cls-3" x="113.07" y="62.08" width="1.72" height="2.68" rx="0.74" transform="translate(-13.77 37.07) rotate(-17.44)"/><rect class="cls-3" x="108.84" y="63.4" width="1.72" height="2.68" rx="0.74" transform="translate(-14.36 35.86) rotate(-17.44)"/><rect class="cls-3" x="104.6" y="64.73" width="1.72" height="2.68" rx="0.74" transform="translate(-14.96 34.65) rotate(-17.44)"/><rect class="cls-3" x="100.37" y="66.06" width="1.72" height="2.68" rx="0.74" transform="translate(-15.55 33.44) rotate(-17.44)"/><rect class="cls-3" x="96.14" y="67.39" width="1.72" height="2.68" rx="0.74" transform="translate(-16.14 32.24) rotate(-17.44)"/><rect class="cls-3" x="91.91" y="68.72" width="1.72" height="2.68" rx="0.74" transform="translate(-16.74 31.03) rotate(-17.44)"/><rect class="cls-3" x="87.68" y="70.05" width="1.72" height="2.68" rx="0.74" transform="translate(-17.33 29.82) rotate(-17.44)"/><path class="cls-3" d="M197.2,42.35l-2.82.89a1.08,1.08,0,0,1-1.35-.71l-2.27-7.22a1.07,1.07,0,0,1,.7-1.35l2.82-.89a1.08,1.08,0,0,1,1.35.7L197.9,41A1.07,1.07,0,0,1,197.2,42.35Zm-5.54-7.75a.4.4,0,0,0-.26.5l2.27,7.23a.42.42,0,0,0,.51.27l2.82-.89a.4.4,0,0,0,.26-.51L195,34a.41.41,0,0,0-.51-.27Z"/><path class="cls-3" d="M188.74,45l-2.83.89a1.07,1.07,0,0,1-1.34-.71L182.29,38a1.07,1.07,0,0,1,.71-1.34l2.82-.89a1.08,1.08,0,0,1,1.35.7l2.27,7.23A1.08,1.08,0,0,1,188.74,45Zm-5.54-7.75a.39.39,0,0,0-.26.5L185.21,45a.39.39,0,0,0,.5.26l2.82-.88a.41.41,0,0,0,.27-.51l-2.27-7.23a.42.42,0,0,0-.51-.26Z"/><path class="cls-6" d="M213.26,53.17l-1.43-5.45c-.58-.1-23.92,4.84-23.93,4.84l-62.56,7.9L109.16,48.68l-6.93,2.15,10.48,13.54L166,67.46c3.67-1,7-2,9.84-2.77Z"/><path class="cls-3" d="M213.66,53.4,175.92,65c-2.85.81-6.18,1.75-9.85,2.77l-.11,0-53.42-3.1L101.66,50.65l.47-.14,6.93-2.16.16-.05,16.21,11.81,62.43-7.88h0c.18-.06,23.36-5,24-4.84l.21,0ZM165.94,67.12l9.78-2.75,37.13-11.43-1.27-4.86c-2.36.33-22.19,4.51-23.61,4.81l-62.73,7.92-.1-.08-16-11.68-6.31,2,10.1,13Z"/><path class="cls-5" d="M200.32,51.17c14.23-5.35,19.74-5,19.74-5l2.57,8.19,2.58,8.2s-4.33,3.42-19.06,7.17c-12.14,3.09-14,2.83-14,2.83l-2.46-7.84-2.46-7.84S188.6,55.58,200.32,51.17Z"/><path class="cls-3" d="M213.1,68.1c-2.12.66-4.43,1.32-6.87,1.94-12.06,3.06-14.07,2.85-14.15,2.84l-.21,0-5.06-16.09.16-.14c.06-.06,1.59-1.39,13.24-5.77,2.35-.88,4.62-1.67,6.74-2.34,9.22-2.89,13-2.71,13.13-2.7h.23l5.29,16.84-.18.15C225.29,62.9,222.32,65.2,213.1,68.1Zm-20.73,4.11c.74,0,3.75-.3,13.7-2.83,2.42-.61,4.72-1.26,6.83-1.93,7.83-2.46,11.14-4.51,11.91-5l-5-15.93c-.94,0-4.83.21-12.66,2.68-2.11.66-4.37,1.44-6.71,2.32-9.59,3.61-12.22,5.11-12.85,5.52Z"/><path class="cls-7" d="M200.32,51.17c-11.72,4.41-13.12,5.69-13.12,5.69l.63,2s1.41-1.29,13.13-5.7c14.22-5.35,19.73-5,19.73-5l-.63-2S214.55,45.82,200.32,51.17Z"/><path class="cls-3" d="M213.1,68.1c-2.12.66-4.43,1.32-6.87,1.94-12.06,3.06-14.07,2.85-14.15,2.84l-.21,0-5.06-16.09.16-.14c.06-.06,1.59-1.39,13.24-5.77,2.35-.88,4.62-1.67,6.74-2.34,9.22-2.89,13-2.71,13.13-2.7h.23l5.29,16.84-.18.15C225.29,62.9,222.32,65.2,213.1,68.1Zm-20.73,4.11c.74,0,3.75-.3,13.7-2.83,2.42-.61,4.72-1.26,6.83-1.93,7.83-2.46,11.14-4.51,11.91-5l-5-15.93c-.94,0-4.83.21-12.66,2.68-2.11.66-4.37,1.44-6.71,2.32-9.59,3.61-12.22,5.11-12.85,5.52Z"/><path class="cls-5" d="M205.14,66.5c-12.14,3.08-14,2.83-14,2.83l1,3.21s1.89.26,14-2.83c14.73-3.75,19.06-7.17,19.06-7.17l-1-3.21S219.87,62.75,205.14,66.5Z"/><rect class="cls-3" x="220.36" y="45.86" width="0.67" height="18.2" transform="translate(-6.32 68.68) rotate(-17.44)"/><polygon class="cls-8" points="188.48 70.35 191.39 70.21 187.93 59.19 185.46 60.74 188.48 70.35"/><path class="cls-3" d="M191.84,70.53l-3.6.17-3.18-10.1,3.06-1.92ZM188.72,70l2.22-.1-3.2-10.19-1.88,1.18Z"/><polygon class="cls-8" points="185.41 69.97 188.26 69.65 185.68 61.45 183.16 62.82 185.41 69.97"/><path class="cls-3" d="M188.7,69.94l-3.53.39-2.41-7.67,3.12-1.7Zm-3.06-.34,2.18-.24-2.33-7.42-1.93,1Z"/><polygon class="cls-8" points="182.41 69.85 185.22 69.39 183.34 63.4 180.77 64.63 182.41 69.85"/><path class="cls-3" d="M185.66,69.66l-3.48.57-1.81-5.78,3.18-1.52Zm-3-.19,2.14-.35-1.65-5.25-2,.94Z"/><rect class="cls-3" x="204.24" y="50.17" width="0.34" height="19.8" transform="translate(-6.46 90.51) rotate(-24.59)"/><rect class="cls-3" x="195.4" y="57.64" width="1.54" height="0.67" transform="translate(-8.36 61.47) rotate(-17.44)"/><rect class="cls-3" x="198.08" y="66.16" width="1.54" height="0.67" transform="translate(-10.79 62.66) rotate(-17.44)"/><path class="cls-5" d="M101.25,43.12l-3.41.35a.68.68,0,0,0-.46,1.09l15.33,19.81h.14L125.2,60.5,101.72,43.25A.72.72,0,0,0,101.25,43.12Z"/><path class="cls-3" d="M125.94,60.63l-13.12,4.09-.28,0L97.11,44.77a1,1,0,0,1-.17-.92,1,1,0,0,1,.87-.71l3.4-.35a1,1,0,0,1,.71.19ZM112.87,64l11.6-3.65-23-16.86a.34.34,0,0,0-.24-.06l-3.4.35a.33.33,0,0,0-.29.24.34.34,0,0,0,0,.31Z"/><path class="cls-5" d="M19.05,28.88a7.12,7.12,0,0,0-2.78-1.05h0a7,7,0,0,0-3.11.24L.89,31.92l9.37,14.75L34.7,39C27.68,34.5,21.59,30.54,19.05,28.88Z"/><path class="cls-3" d="M35.48,39.1l-25.37,8L.37,31.73l12.66-4a7.34,7.34,0,0,1,6.2.85c2.92,1.91,8.85,5.76,15.65,10.11ZM10.4,46.27l23.51-7.38c-6.55-4.2-12.21-7.87-15-9.72a6.44,6.44,0,0,0-2.64-1,6.51,6.51,0,0,0-3,.22L1.41,32.11Z"/><path class="cls-6" d="M269.62,35.1l-.57,1.19,1,3.11,15.13-7.29a1.33,1.33,0,0,0,.69-1.6l-.21-.67-4.29,1.35C278.31,32.23,274.29,33.56,269.62,35.1Z"/><path class="cls-3" d="M269.82,39.88l-1.13-3.61.69-1.45.14,0c4.85-1.6,8.79-2.91,11.71-3.91l4.62-1.45.32,1a1.68,1.68,0,0,1-.87,2Zm-.41-3.56.82,2.61L285,31.81a1,1,0,0,0,.51-1.2l-.11-.35-4,1.25c-2.88,1-6.78,2.29-11.58,3.86Z"/><path class="cls-3" d="M171.19,69.68l-5,1.57-.74-2.34.82-1.72L170,66Zm-4.55.73,3.7-1.17-.75-2.38-2.83.89L166.18,69Z"/><path class="cls-3" d="M223.42,63.63a13.52,13.52,0,0,0,1.79-1.09l-2.58-8.2-2.57-8.19a13.83,13.83,0,0,0-2.09.12Z"/><path class="cls-3" d="M213.1,68.1c-2.12.66-4.43,1.32-6.87,1.94-12.06,3.06-14.07,2.85-14.15,2.84l-.21,0-5.06-16.09.16-.14c.06-.06,1.59-1.39,13.24-5.77,2.35-.88,4.62-1.67,6.74-2.34,9.22-2.89,13-2.71,13.13-2.7h.23l5.29,16.84-.18.15C225.29,62.9,222.32,65.2,213.1,68.1Zm-20.73,4.11c.74,0,3.75-.3,13.7-2.83,2.42-.61,4.72-1.26,6.83-1.93,7.83-2.46,11.14-4.51,11.91-5l-5-15.93c-.94,0-4.83.21-12.66,2.68-2.11.66-4.37,1.44-6.71,2.32-9.59,3.61-12.22,5.11-12.85,5.52Z"/><path class="cls-2" d="M235.57,34.7l-11,3.45a.7.7,0,0,0-.46.88l.42,1.35a.7.7,0,0,1,.46-.88L236,36a.7.7,0,0,1,.88.47l-.42-1.35A.71.71,0,0,0,235.57,34.7Z"/><g class="cls-9"><path class="cls-1" d="M266.06,8.16l-3.42,1.08a.34.34,0,0,1-.42-.23.33.33,0,0,1,.22-.42l3.42-1.07a.33.33,0,0,1,.42.22A.34.34,0,0,1,266.06,8.16Z"/></g><g class="cls-9"><path class="cls-1" d="M267.36,7.75l-.46.15a.34.34,0,0,1-.2-.65l.46-.14a.33.33,0,0,1,.42.22A.33.33,0,0,1,267.36,7.75Z"/></g><g class="cls-9"><path class="cls-1" d="M7.78,31.26,4,32.45a.33.33,0,0,1-.42-.22.34.34,0,0,1,.22-.42l3.8-1.2a.34.34,0,0,1,.21.65Z"/></g><g class="cls-9"><path class="cls-1" d="M10.34,30.45,9,30.89a.35.35,0,0,1-.42-.23.34.34,0,0,1,.22-.42l1.39-.43a.34.34,0,0,1,.43.22A.35.35,0,0,1,10.34,30.45Z"/></g><g class="cls-9"><path class="cls-1" d="M101.36,44.38h-.07l-2.61.29A.34.34,0,0,1,98.6,44l2.62-.29a.34.34,0,0,1,.14.66Z"/></g></g></g></svg>