<svg width="48" height="48" viewBox="0 0 48 48" fill="none" xmlns="http://www.w3.org/2000/svg">
<g clip-path="url(#clip0)">
<path d="M30 13C28.896 13 28 12.104 28 11V8H20V11C20 12.104 19.104 13 18 13C16.896 13 16 12.104 16 11V8C16 5.794 17.794 4 20 4H28C30.206 4 32 5.794 32 8V11C32 12.104 31.104 13 30 13Z" fill="#000041"/>
<path d="M36 25V26.84C36 27.66 35.32 28.34 34.5 28.34C33.68 28.34 33 27.66 33 26.84V25H15V26.84C15 27.66 14.32 28.34 13.5 28.34C12.68 28.34 12 27.66 12 26.84V25H0V38.5C0 41.54 2.46 44 5.5 44H42.5C45.54 44 48 41.54 48 38.5V25H36ZM42.5 10H5.5C2.46 10 0 12.46 0 15.5V22H12V19.5C12 18.68 12.68 18 13.5 18C14.32 18 15 18.68 15 19.5V22H33V19.5C33 18.68 33.68 18 34.5 18C35.32 18 36 18.68 36 19.5V22H48V15.5C48 12.46 45.54 10 42.5 10Z" fill="#000041"/>
</g>
<defs>
<clipPath id="clip0">
<rect width="48" height="48" fill="white"/>
</clipPath>
</defs>
</svg>
