<svg width="47" height="47" viewBox="0 0 47 47" fill="none" xmlns="http://www.w3.org/2000/svg">
<path d="M6.97656 33.1387H11.1074V35.8926H13.8613V16.6152H11.1074V19.3691H8.35352V17.9922C8.35352 9.64042 15.1482 2.75391 23.5 2.75391C31.8518 2.75391 38.6465 9.64042 38.6465 17.9922V19.3691H35.8926V16.6152H33.1387V35.8926H35.8926V33.1387H38.6465V37.2695C38.6465 39.5474 36.7935 41.4922 34.5156 41.4922H27.3772C26.8069 39.8929 25.2928 38.7383 23.5 38.7383C21.2222 38.7383 19.3691 40.5913 19.3691 42.8691C19.3691 45.147 21.2222 47 23.5 47C25.2928 47 26.8069 45.8454 27.3772 44.2461H34.5156C38.3117 44.2461 41.4004 41.0656 41.4004 37.2695V32.885C42.9997 32.3147 44.1543 30.8006 44.1543 29.0078V23.5C44.1543 21.7072 42.9997 20.1931 41.4004 19.6228V17.9922C41.4004 8.12219 33.37 0 23.5 0C13.63 0 5.59961 8.12219 5.59961 17.9922V19.6228C4.00032 20.1931 2.8457 21.7072 2.8457 23.5V29.0078C2.8457 31.2857 4.69871 33.1387 6.97656 33.1387Z" fill="#000041"/>
</svg>
