<svg width="52" height="52" viewBox="0 0 52 52" fill="none" xmlns="http://www.w3.org/2000/svg">
<path d="M34.4688 26.2666L51.9992 37.3491V14.7161L34.4688 26.2666Z" fill="#000041"/>
<path d="M0 14.7161V37.3491L17.5305 26.2666L0 14.7161Z" fill="#000041"/>
<path d="M48.7502 8.125H3.25016C1.62841 8.125 0.341406 9.334 0.0976562 10.8908L26.0002 27.9565L51.9027 10.8908C51.6589 9.334 50.3719 8.125 48.7502 8.125Z" fill="#000041"/>
<path d="M31.492 28.2294L26.8933 31.2584C26.6203 31.4372 26.3115 31.5249 25.9995 31.5249C25.6875 31.5249 25.3788 31.4372 25.1058 31.2584L20.507 28.2262L0.103516 41.1319C0.353766 42.6757 1.63427 43.8749 3.24952 43.8749H48.7495C50.3648 43.8749 51.6453 42.6757 51.8955 41.1319L31.492 28.2294Z" fill="#000041"/>
</svg>
