<svg xmlns="http://www.w3.org/2000/svg" viewBox="0 0 63.55 86.78"><defs><style>.cls-1{fill:#ff1f5a;}.cls-1,.cls-2,.cls-3,.cls-4,.cls-5{fill-rule:evenodd;}.cls-2{fill:#fff;}.cls-3{fill:#9fd5ff;}.cls-4{fill:#c8e9f1;}.cls-5{fill:#325b70;}.cls-6{fill:#414042;}</style></defs><title>Recurso 1</title><g id="Capa_2" data-name="Capa 2"><g id="Layer_3" data-name="Layer 3"><path class="cls-1" d="M415.7,341.41a8,8,0,0,1,2.54-.89c-13.46,2.6-26.26,15-26.45,29.7-.26,19.65,18.85,34.22,23.5,37.47C379,361.2,415.7,341.41,415.7,341.41Z" transform="translate(-391.79 -340.01)"/><path class="cls-1" d="M417.79,407.87l3.32,0c-12.54-46.29.92-67.56.92-67.56a4.43,4.43,0,0,1,.77-.31,26,26,0,0,0-3.72.34l.8-.1C394.88,359.66,415.9,404,417.79,407.87Z" transform="translate(-391.79 -340.01)"/><path class="cls-1" d="M425.76,407.94l3.3,0c2.13-3.9,24.94-47.12.51-67.13,0,0,0,0,.23,0a28.46,28.46,0,0,0-3.94-.67l.06,0C436.38,360.41,426.35,405.33,425.76,407.94Z" transform="translate(-391.79 -340.01)"/><path class="cls-1" d="M431.71,407.69c4.89-3.65,23-18.36,23.61-36.64.43-13.18-10-24.75-21.94-29.15C437.55,344.59,466.36,365.44,431.71,407.69Z" transform="translate(-391.79 -340.01)"/><path class="cls-2" d="M417.79,407.87c-1.89-3.85-22.91-48.21,2.09-67.6l-.8.1-.84.15a8,8,0,0,0-2.54.89s-36.68,19.79-.41,66.28l.22.16Z" transform="translate(-391.79 -340.01)"/><path class="cls-2" d="M429.57,340.83c24.43,20,1.62,63.23-.51,67.13l2.19,0,0,.07.5-.36c34.65-42.25,5.84-63.1,1.67-65.79a31.91,31.91,0,0,0-3.58-1.09C429.56,340.79,429.57,340.83,429.57,340.83Z" transform="translate(-391.79 -340.01)"/><path class="cls-2" d="M421.11,407.9l4.65,0c.59-2.61,10.62-47.53.16-67.77l-.06,0c-.73-.07-1.45-.12-2.17-.13l-.89,0a4.43,4.43,0,0,0-.77.31S408.57,361.61,421.11,407.9Z" transform="translate(-391.79 -340.01)"/><polygon class="cls-3" points="25.12 78.18 24.29 69.78 24.59 69.75 24.83 72.1 25.89 70.1 26.16 70.24 24.88 72.65 25.43 78.15 25.12 78.18"/><polygon class="cls-3" points="31.19 78.25 31.3 72.81 29.41 70.33 29.65 70.15 31.31 72.32 31.37 69.2 31.68 69.2 31.62 72.27 33.12 70.15 33.37 70.33 31.61 72.81 31.61 72.81 31.5 78.25 31.19 78.25"/><polygon class="cls-3" points="37.55 78.22 38.19 72.88 36.7 70.23 36.96 70.08 38.25 72.37 38.54 69.95 38.84 69.99 37.85 78.25 37.55 78.22"/><polygon class="cls-1" points="38.72 70.51 24.36 70.32 20.77 65.7 42.2 65.99 38.72 70.51"/><path class="cls-4" d="M415.71,409.77l-.52-.66,16.25.21-.5.65-15.23-.2ZM413.58,407l-.51-.67,20.42.27-.5.65Z" transform="translate(-391.79 -340.01)"/><path class="cls-5" d="M429.72,425.57c.93-2.14.1-7.43.1-7.43L416.7,418s-1,5.28-.1,7.44C417.3,427.15,429,427.3,429.72,425.57Z" transform="translate(-391.79 -340.01)"/><path class="cls-3" d="M429.93,424.91c.57-2.41-.11-6.77-.11-6.77L416.7,418s-.8,4.35-.29,6.77C419.3,425.66,427,425.76,429.93,424.91Z" transform="translate(-391.79 -340.01)"/><rect class="cls-6" x="422.98" y="411.15" width="0.75" height="14.07" transform="translate(-392.14 495.99) rotate(-89.25)"/></g></g></svg>