<svg width="46" height="46" viewBox="0 0 46 46" fill="none" xmlns="http://www.w3.org/2000/svg">
<path d="M23.0013 0C13.8152 0 6.3418 7.47338 6.3418 16.6594C6.3418 28.0595 21.2504 44.7955 21.8851 45.5024C22.4813 46.1664 23.5223 46.1652 24.1174 45.5024C24.7521 44.7955 39.6607 28.0595 39.6607 16.6594C39.6605 7.47338 32.1872 0 23.0013 0ZM23.0013 25.0412C18.3795 25.0412 14.6195 21.2811 14.6195 16.6594C14.6195 12.0376 18.3796 8.27766 23.0013 8.27766C27.6229 8.27766 31.3829 12.0377 31.3829 16.6595C31.3829 21.2812 27.6229 25.0412 23.0013 25.0412Z" fill="#000041"/>
</svg>
