<svg width="50" height="50" viewBox="0 0 50 50" fill="none" xmlns="http://www.w3.org/2000/svg">
<g clip-path="url(#clip0)">
<path d="M18.2305 36.6917V46.3541C18.2305 47.0291 18.6638 47.6271 19.3055 47.8396C19.4659 47.8916 19.6305 47.9166 19.793 47.9166C20.2805 47.9166 20.7513 47.6875 21.0513 47.2791L26.7034 39.5875L18.2305 36.6917Z" fill="#000041"/>
<path d="M49.3438 0.288914C48.8647 -0.0506699 48.2355 -0.0965032 47.7147 0.176413L0.839676 24.6556C0.285509 24.9452 -0.041574 25.5368 0.00425933 26.1598C0.052176 26.7848 0.466759 27.3181 1.05634 27.5202L14.0876 31.9743L41.8397 8.24516L20.3647 34.1181L42.2043 41.5827C42.3668 41.6368 42.5376 41.666 42.7084 41.666C42.9918 41.666 43.273 41.5889 43.5209 41.4389C43.9168 41.1973 44.1855 40.791 44.2543 40.3348L49.9834 1.79308C50.0688 1.20975 49.823 0.63058 49.3438 0.288914Z" fill="#000041"/>
</g>
<defs>
<clipPath id="clip0">
<rect width="50" height="50" fill="white"/>
</clipPath>
</defs>
</svg>
