<svg width="56" height="56" viewBox="0 0 56 56" fill="none" xmlns="http://www.w3.org/2000/svg">
<path d="M17.5 0H0V17.5H17.5V0ZM14 14H3.5V3.5H14V14Z" fill="#000041"/>
<path d="M10.5 7H7V10.5H10.5V7Z" fill="#000041"/>
<path d="M38.5 0V17.5H56V0H38.5ZM52.5 14H42V3.5H52.5V14Z" fill="#000041"/>
<path d="M49 7H45.5V10.5H49V7Z" fill="#000041"/>
<path d="M0 56H17.5V38.5H0V56ZM3.5 42H14V52.5H3.5V42Z" fill="#000041"/>
<path d="M10.5 45.5H7V49H10.5V45.5Z" fill="#000041"/>
<path d="M35 0H28V3.5H35V0Z" fill="#000041"/>
<path d="M28 14H31.5V10.5H35V7H24.5V3.5H21V7V8.75V10.5H28V14Z" fill="#000041"/>
<path d="M24.5 14H21V17.5H24.5V14Z" fill="#000041"/>
<path d="M35 17.5H31.5V21H21V24.5H35V17.5Z" fill="#000041"/>
<path d="M3.5 31.5H7V28H3.5V21H0V35H3.5V31.5Z" fill="#000041"/>
<path d="M10.5 21H7V24.5H10.5V21Z" fill="#000041"/>
<path d="M21 35H28V31.5H24.5V28H17.5V21H14V28H10.5V35H14V31.5H15.75H17.5H21V35Z" fill="#000041"/>
<path d="M35 28H31.5V35H35V28Z" fill="#000041"/>
<path d="M31.5 38.5H21V42H28V52.5H21V56H31.5V52.5H38.5V49H31.5V38.5Z" fill="#000041"/>
<path d="M24.5 45.5H21V49H24.5V45.5Z" fill="#000041"/>
<path d="M38.5 38.5H35V45.5H38.5V38.5Z" fill="#000041"/>
<path d="M52.5 45.5H42V56H45.5V49H52.5V45.5Z" fill="#000041"/>
<path d="M56 52.5H49V56H56V52.5Z" fill="#000041"/>
<path d="M56 38.5H52.5V42H56V38.5Z" fill="#000041"/>
<path d="M42 42H45.5V31.5H38.5V35H42V42Z" fill="#000041"/>
<path d="M49 24.5H45.5V21H42V24.5H38.5V28H52.5V24.5H56V21H49V24.5Z" fill="#000041"/>
<path d="M56 31.5H49V35H56V31.5Z" fill="#000041"/>
</svg>
