<svg xmlns="http://www.w3.org/2000/svg" viewBox="0 0 262.74 76.24"><defs><style>.cls-1{fill:#b2d7e9;}</style></defs><title>Recurso 2</title><g id="Capa_2" data-name="Capa 2"><g id="Capa_1-2" data-name="Capa 1"><path class="cls-1" d="M8.15,16.12H8a8,8,0,0,0-8-8V8A8,8,0,0,0,8,0h.17a8,8,0,0,0,8,8v.17A8,8,0,0,0,8.15,16.12Z"/><path class="cls-1" d="M192.48,68.34,189.7,68l-.3-2.76a1.66,1.66,0,0,0-1.65-1.47h0a1.65,1.65,0,0,0-1.65,1.47l-.31,2.78-2.76.31A1.66,1.66,0,0,0,181.52,70v0A1.67,1.67,0,0,0,183,71.69l2.77.31.31,2.76a1.67,1.67,0,0,0,1.65,1.48h0a1.66,1.66,0,0,0,1.65-1.48l.31-2.78,2.76-.31A1.66,1.66,0,0,0,194,70v0A1.67,1.67,0,0,0,192.48,68.34Z"/><path class="cls-1" d="M256.53,50.29h-.13a6.21,6.21,0,0,0-6.21-6.21V44a6.21,6.21,0,0,0,6.21-6.21h.13A6.21,6.21,0,0,0,262.74,44v.13A6.21,6.21,0,0,0,256.53,50.29Z"/></g></g></svg>