<svg width="500" height="254" viewBox="0 0 500 254" fill="none" xmlns="http://www.w3.org/2000/svg">
<g clip-path="url(#clip0)">
<path d="M111.78 148.644L109.108 146.985C108.853 146.828 108.603 146.658 108.348 146.497C114.035 145.519 119.22 142.639 123.051 138.328C126.882 134.018 129.132 128.533 129.431 122.776C129.73 117.019 128.061 111.332 124.696 106.648C121.332 101.965 116.473 98.5638 110.918 97.0038L111.05 107.469L105.293 96.0829H105.221C98.4853 95.7705 91.9009 98.1433 86.9158 102.68C81.9306 107.216 78.9526 113.544 78.6366 120.273C78.6111 120.761 78.6366 121.237 78.6366 121.716C76.6358 119.433 74.8134 116.984 73.6111 114.302C71.177 108.874 71.1303 102.725 71.3214 95.2468C71.7038 80.4354 72.3452 65.5053 73.1778 50.626C79.1887 49.9574 84.7641 47.1701 88.9031 42.7645C93.0421 38.3589 95.4734 32.6236 95.7607 26.5883C95.7947 25.8117 95.7607 25.0478 95.7607 24.2838C95.7607 24.0929 95.7607 23.9061 95.7309 23.7152C95.68 22.9767 95.612 22.2468 95.4973 21.5253C95.4973 21.4065 95.4548 21.2919 95.4336 21.1773C95.3316 20.5661 95.2042 19.9635 95.0597 19.3694C95.0045 19.1444 94.9493 18.945 94.8898 18.7031C94.7114 18.0537 94.516 17.4299 94.2866 16.7848C94.2101 16.5768 94.1209 16.3604 94.0402 16.1652C93.8618 15.7026 93.6664 15.2442 93.4582 14.7944C93.3478 14.5567 93.2416 14.3191 93.1269 14.0857C93.0929 14.0262 93.0716 13.9626 93.0376 13.9032C90.3526 8.60858 85.8962 4.42077 80.4422 2.06703C74.9882 -0.286703 68.8813 -0.657678 63.1821 1.01855L63.352 14.6416L57.6596 3.38667C52.9828 6.06461 49.2842 10.1645 47.1026 15.0891C44.921 20.0136 44.3705 25.5054 45.5313 30.7643H45.5058C45.544 30.9468 45.5993 31.1208 45.6417 31.2991C45.7224 31.6344 45.8074 31.9654 45.9009 32.2964C46.0198 32.7208 46.1558 33.1452 46.2959 33.5696C46.4021 33.8836 46.5041 34.1935 46.623 34.5033C46.7972 34.9531 46.9926 35.3902 47.188 35.8274C47.3027 36.082 47.4047 36.3451 47.5279 36.5955C47.8507 37.2547 48.2019 37.8956 48.5814 38.518C48.7131 38.7387 48.8618 38.9424 49.0062 39.1589C49.2781 39.5833 49.55 40.0076 49.8558 40.4023C50.0385 40.6527 50.2339 40.8946 50.4251 41.1365C50.7055 41.4888 50.9901 41.8368 51.2747 42.1721C51.4828 42.414 51.6995 42.6474 51.9162 42.8766C52.2305 43.2076 52.5491 43.5259 52.8805 43.8357C53.1014 44.0436 53.3053 44.2601 53.5474 44.4553C53.9213 44.7906 54.3121 45.1046 54.7071 45.4144C54.9068 45.5715 55.1022 45.7327 55.3061 45.8855C55.9094 46.3099 56.5296 46.7343 57.171 47.1587C57.29 47.2308 57.4217 47.2903 57.5406 47.3624C58.0801 47.6765 58.6239 47.9778 59.1846 48.2494C59.4268 48.3682 59.6732 48.4743 59.9196 48.5847C60.3783 48.7884 60.8414 48.9878 61.3172 49.1703L62.1668 49.4674C62.6341 49.6244 63.1099 49.773 63.5899 49.8918C63.8703 49.9682 64.1549 50.0488 64.4395 50.1167C64.9578 50.2398 65.4888 50.3417 66.0241 50.435L66.126 50.4562C65.7777 56.7345 65.4661 63.0141 65.1914 69.2951C63.6763 66.1847 61.541 63.4164 58.9166 61.16C56.2921 58.9036 53.2339 57.2068 49.9294 56.1735C46.625 55.1403 43.1441 54.7925 39.7003 55.1514C36.2565 55.5103 32.9224 56.5685 29.9026 58.2608L34.397 70.5683L25.1489 61.6984C20.191 66.2276 17.2359 72.538 16.9331 79.2429C16.8024 81.5985 17.0084 83.9606 17.5449 86.2581C18.7078 91.2131 21.334 95.7046 25.083 99.1504C28.832 102.596 33.5308 104.837 38.5701 105.583C43.6094 106.328 48.7566 105.544 53.3444 103.332C57.9322 101.12 61.7488 97.5813 64.2993 93.1758C64.2993 93.8124 64.2569 94.449 64.2399 95.0898C64.0699 101.685 63.8575 109.893 67.1498 117.222C69.3801 122.187 72.9654 126.223 76.4956 129.839C78.8023 132.19 81.194 134.469 83.6451 136.672C86.0584 139.908 89.2061 142.527 92.8295 144.311C96.8567 147.409 101.028 150.325 105.34 153.015L108.033 154.687C110.455 156.186 112.936 157.726 115.366 159.326C114.941 159.284 114.516 159.237 114.091 159.216C108.7 158.965 103.369 160.433 98.8677 163.408C94.3668 166.384 90.9296 170.712 89.0529 175.767L104.941 188.681L87.4642 184.633C87.4689 188.929 88.5634 193.153 90.6456 196.912C92.7278 200.671 95.7297 203.841 99.3709 206.127C103.012 208.412 107.174 209.738 111.467 209.981C115.76 210.224 120.045 209.376 123.921 207.516L122.74 208.98C121.959 209.951 121.187 210.915 120.425 211.875C110.085 224.959 107.209 237.376 112.328 246.845L118.556 243.488C113.573 234.27 121.067 222.472 125.977 216.259C126.725 215.316 127.484 214.369 128.254 213.415C134.86 205.216 142.345 195.922 142.163 184.522C141.895 167.317 125.196 156.962 111.78 148.644Z" fill="#F2F2F2"/>
<path d="M250 254C388.071 254 500 250.01 500 245.088C500 240.166 388.071 236.175 250 236.175C111.929 236.175 0 240.166 0 245.088C0 250.01 111.929 254 250 254Z" fill="#3F3D56"/>
<path d="M46.049 242.189C44.7746 239.851 46.219 236.982 47.8715 234.898C49.524 232.814 51.5291 230.654 51.4866 227.985C51.4229 224.165 47.3659 221.912 44.1246 219.883C41.7179 218.382 39.4989 216.6 37.5146 214.574C36.6805 213.802 35.9888 212.89 35.4713 211.879C34.8001 210.385 34.8171 208.687 34.8596 207.054C35.004 201.604 35.2745 196.159 35.671 190.719" stroke="#3F3D56" stroke-width="4" stroke-miterlimit="10"/>
<path d="M29.5243 190.4C29.5694 189.403 29.8656 188.433 30.3853 187.579C30.9051 186.726 31.6316 186.018 32.4979 185.52L33.8318 188.159L33.7893 184.964C34.4274 184.777 35.092 184.697 35.7562 184.726C36.9298 184.783 38.0601 185.187 39.0045 185.885C39.9489 186.584 40.665 187.546 41.0625 188.651C41.46 189.755 41.5211 190.953 41.238 192.092C40.955 193.231 40.3404 194.261 39.472 195.052C38.6036 195.843 37.5201 196.359 36.3584 196.535C35.1967 196.711 34.0089 196.539 32.9447 196.042C31.8805 195.544 30.9877 194.743 30.3789 193.739C29.7702 192.735 29.4728 191.573 29.5243 190.4Z" fill="#57B894"/>
<path d="M40.1444 230.713C40.7698 231.924 41.7928 232.884 43.042 233.431C44.2912 233.978 45.6907 234.079 47.0058 233.718C48.321 233.357 49.472 232.555 50.2659 231.447C51.0597 230.339 51.4483 228.992 51.3663 227.632C51.2844 226.272 50.737 224.982 49.8159 223.977C48.8947 222.972 47.6558 222.314 46.3068 222.113C44.9577 221.912 43.5806 222.18 42.4061 222.873C41.2316 223.566 40.3311 224.641 39.8556 225.918L43.5811 228.944L39.4902 228.006C39.4905 228.947 39.7147 229.875 40.1444 230.713Z" fill="#57B894"/>
<path d="M43.1182 219.149C44.5995 219.253 46.0665 218.8 47.2305 217.879C48.3945 216.958 49.1714 215.635 49.4083 214.17C49.6453 212.705 49.3252 211.205 48.511 209.965C47.6968 208.724 46.4475 207.832 45.0086 207.465L45.0425 209.918L43.6916 207.249C42.9094 207.211 42.1273 207.327 41.3902 207.592C40.6532 207.856 39.9757 208.263 39.3966 208.79C38.8176 209.317 38.3484 209.953 38.016 210.661C37.6836 211.37 37.4946 212.137 37.4597 212.919C37.4248 213.606 37.5111 214.294 37.7146 214.951C38.0729 216.122 38.7842 217.153 39.7514 217.905C40.7186 218.656 41.8944 219.09 43.1182 219.149Z" fill="#57B894"/>
<path d="M28.6235 209.528C29.5387 209.561 30.4493 209.383 31.2843 209.008C32.1193 208.632 32.8562 208.069 33.4375 207.362C34.0188 206.655 34.4289 205.823 34.6357 204.932C34.8425 204.041 34.8405 203.114 34.6298 202.223C34.4191 201.333 34.0055 200.503 33.4211 199.799C32.8367 199.094 32.0974 198.534 31.2607 198.162C30.4241 197.79 29.5128 197.616 28.5977 197.654C27.6827 197.691 26.7887 197.939 25.9855 198.379L27.039 201.265L24.8725 199.185C23.7115 200.248 23.0194 201.726 22.9481 203.298C22.9198 203.849 22.9699 204.402 23.0968 204.94C23.3911 206.202 24.0904 207.334 25.0882 208.162C26.086 208.99 27.3275 209.47 28.6235 209.528Z" fill="#57B894"/>
<path opacity="0.1" d="M30.3229 191.987C31.6993 192.136 33.0374 192.565 34.4181 192.65C35.7987 192.734 37.3153 192.408 38.1904 191.334C38.6577 190.757 38.8955 190.027 39.2906 189.394C39.6679 188.807 40.1845 188.322 40.7944 187.981C41.155 188.733 41.3533 189.551 41.3765 190.384C41.3997 191.217 41.2472 192.046 40.929 192.816C40.6108 193.587 40.1339 194.281 39.5294 194.856C38.9249 195.43 38.2062 195.87 37.4201 196.149C36.634 196.428 35.798 196.538 34.9665 196.473C34.1349 196.408 33.3263 196.169 32.5933 195.771C31.8603 195.373 31.2192 194.826 30.7117 194.165C30.2042 193.503 29.8416 192.743 29.6475 191.932C29.8712 191.932 30.0963 191.951 30.3229 191.987Z" fill="black"/>
<path opacity="0.1" d="M28.6239 209.528C29.6521 209.58 30.6763 209.364 31.5962 208.902C32.5161 208.441 33.3002 207.748 33.8718 206.892C34.4434 206.037 34.7829 205.048 34.8571 204.022C34.9313 202.996 34.7377 201.969 34.2951 201.04C33.822 201.358 33.4152 201.764 33.0971 202.237C32.6723 202.877 32.4132 203.62 31.9162 204.206C30.9858 205.297 29.4013 205.653 27.9612 205.589C26.5211 205.526 25.132 205.114 23.7131 204.982C23.5134 204.982 23.3138 204.953 23.1099 204.948C23.4052 206.207 24.1033 207.335 25.0984 208.162C26.0935 208.988 27.3313 209.468 28.6239 209.528Z" fill="black"/>
<path opacity="0.1" d="M43.118 219.149C44.1367 219.2 45.1515 218.989 46.0649 218.536C46.9784 218.082 47.7598 217.402 48.334 216.56C48.9082 215.718 49.256 214.742 49.3439 213.727C49.4318 212.712 49.2569 211.691 48.8359 210.763C48.3413 211.085 47.9094 211.495 47.5615 211.972C47.0984 212.626 46.8096 213.381 46.287 213.984C45.2802 215.1 43.5895 215.495 42.0687 215.461C40.5479 215.427 39.1673 215.066 37.7017 214.951C38.0607 216.124 38.7739 217.157 39.7436 217.908C40.7133 218.66 41.892 219.093 43.118 219.149Z" fill="black"/>
<path opacity="0.1" d="M40.1445 230.713C40.7895 232.154 41.9808 233.279 43.4562 233.842C44.9317 234.404 46.5704 234.358 48.012 233.714C49.4536 233.07 50.5798 231.879 51.1431 230.405C51.7063 228.931 51.6604 227.294 51.0154 225.854C50.5233 226.176 50.0822 226.569 49.707 227.021C49.1377 227.709 48.7639 228.494 48.1097 229.143C46.8905 230.34 44.9236 230.841 43.1692 230.879C42.1586 230.884 41.1486 230.829 40.1445 230.713Z" fill="black"/>
<path d="M55.0426 239.494C55.0426 239.494 50.3357 239.35 48.9168 238.34C47.498 237.33 41.6951 236.129 41.3297 237.746C40.9644 239.363 34.2567 245.809 39.5668 245.835C44.8769 245.86 51.9117 245.011 53.3306 244.137C54.7494 243.263 55.0426 239.494 55.0426 239.494Z" fill="#656380"/>
<path opacity="0.2" d="M39.4734 245.274C44.7878 245.317 51.8184 244.426 53.233 243.577C54.312 242.919 54.7411 240.568 54.8855 239.481H55.0427C55.0427 239.481 54.7453 243.276 53.3434 244.15C51.9416 245.024 44.894 245.877 39.5796 245.847C38.0461 245.847 37.5193 245.291 37.549 244.485C37.7487 244.982 38.3307 245.262 39.4734 245.274Z" fill="black"/>
<path d="M418.47 47.2139H81.5291C76.7382 47.2139 72.8545 51.0938 72.8545 55.88V232.072C72.8545 236.858 76.7382 240.738 81.5291 240.738H418.47C423.261 240.738 427.145 236.858 427.145 232.072V55.88C427.145 51.0938 423.261 47.2139 418.47 47.2139Z" fill="#F2F2F2"/>
<path d="M73.0669 56.7627H186.916V240.95H81.7415C79.4408 240.95 77.2344 240.037 75.6076 238.412C73.9808 236.786 73.0669 234.582 73.0669 232.284V56.7627Z" fill="#B7B3B3"/>
<path d="M427.145 55.88V60.7945H72.8545V55.88C72.8545 53.5816 73.7684 51.3773 75.3952 49.7521C77.022 48.1269 79.2284 47.2139 81.5291 47.2139H418.47C420.771 47.2139 422.977 48.1269 424.604 49.7521C426.231 51.3773 427.145 53.5816 427.145 55.88Z" fill="#3F3D56"/>
<path d="M81.9878 56.7627C83.3955 56.7627 84.5367 55.6227 84.5367 54.2164C84.5367 52.8101 83.3955 51.67 81.9878 51.67C80.5801 51.67 79.439 52.8101 79.439 54.2164C79.439 55.6227 80.5801 56.7627 81.9878 56.7627Z" fill="#6C63FF"/>
<path d="M88.3604 56.7627C89.7681 56.7627 90.9092 55.6227 90.9092 54.2164C90.9092 52.8101 89.7681 51.67 88.3604 51.67C86.9527 51.67 85.8115 52.8101 85.8115 54.2164C85.8115 55.6227 86.9527 56.7627 88.3604 56.7627Z" fill="#6C63FF"/>
<path d="M94.7325 56.7627C96.1401 56.7627 97.2813 55.6227 97.2813 54.2164C97.2813 52.8101 96.1401 51.67 94.7325 51.67C93.3248 51.67 92.1836 52.8101 92.1836 54.2164C92.1836 55.6227 93.3248 56.7627 94.7325 56.7627Z" fill="#6C63FF"/>
<path d="M159.728 143.976C159.728 149.558 158.071 155.014 154.967 159.655C151.863 164.296 147.451 167.914 142.289 170.05C137.127 172.186 131.447 172.745 125.967 171.656C120.487 170.567 115.453 167.879 111.503 163.932C107.552 159.985 104.861 154.956 103.771 149.482C102.681 144.007 103.241 138.333 105.379 133.176C107.517 128.019 111.138 123.611 115.784 120.51C120.429 117.409 125.891 115.754 131.478 115.754C135.189 115.752 138.863 116.481 142.291 117.898C145.719 119.316 148.834 121.395 151.458 124.016C154.081 126.637 156.162 129.749 157.581 133.174C159 136.598 159.73 140.269 159.728 143.976Z" stroke="#F2F2F2" stroke-width="2" stroke-miterlimit="10"/>
<path d="M133.339 134.312L136.865 139.829L151.958 163.422C149.048 166.483 145.487 168.853 141.537 170.357C137.588 171.86 133.352 172.46 129.14 172.111C124.928 171.762 120.849 170.473 117.201 168.34C113.554 166.207 110.433 163.283 108.067 159.784L126.563 123.736L126.95 124.343" stroke="#F2F2F2" stroke-width="2" stroke-linecap="round" stroke-linejoin="round"/>
<path d="M158.798 151.19C157.584 155.777 155.231 159.984 151.958 163.422L136.865 139.829L143.53 129.313C143.556 129.274 143.59 129.243 143.631 129.221C143.672 129.199 143.717 129.188 143.764 129.188C143.81 129.188 143.855 129.199 143.896 129.221C143.937 129.243 143.972 129.274 143.997 129.313C145.395 131.38 152.719 142.278 158.798 151.19Z" stroke="#F2F2F2" stroke-width="2" stroke-miterlimit="10"/>
<path d="M138.488 128.061C138.488 129.538 137.975 130.969 137.036 132.11C136.097 133.25 134.79 134.029 133.339 134.312L126.967 124.335C127.756 123.244 128.87 122.431 130.15 122.012C131.431 121.593 132.811 121.591 134.093 122.005C135.374 122.419 136.492 123.228 137.284 124.316C138.077 125.404 138.504 126.715 138.505 128.061H138.488Z" stroke="#F2F2F2" stroke-width="2" stroke-miterlimit="10"/>
<path d="M234.499 111.353C234.35 111.353 233.858 111.353 233.722 111.353L230.914 111.425C230.899 111.425 230.885 111.422 230.872 111.415C230.86 111.409 230.849 111.399 230.841 111.387L226.636 105.11C226.574 105.012 226.488 104.931 226.386 104.875C226.284 104.82 226.17 104.791 226.054 104.791H225.03C224.788 104.791 224.703 105.033 224.792 105.258L226.954 111.42C226.96 111.433 226.962 111.447 226.961 111.461C226.96 111.475 226.956 111.489 226.948 111.5C226.94 111.512 226.93 111.522 226.918 111.529C226.906 111.535 226.892 111.539 226.878 111.539L221.589 111.616C221.535 111.618 221.48 111.607 221.431 111.584C221.381 111.561 221.338 111.527 221.304 111.484L219.703 109.54C219.639 109.457 219.557 109.39 219.462 109.345C219.368 109.299 219.264 109.276 219.159 109.277H218.433C218.405 109.277 218.378 109.283 218.353 109.296C218.329 109.308 218.307 109.327 218.292 109.349C218.276 109.372 218.266 109.398 218.262 109.425C218.258 109.453 218.262 109.481 218.271 109.506L219.121 112.477C219.185 112.642 219.185 112.826 219.121 112.991L218.271 115.961C218.261 115.987 218.258 116.015 218.262 116.042C218.265 116.069 218.275 116.095 218.291 116.117C218.307 116.14 218.329 116.158 218.353 116.17C218.378 116.182 218.405 116.188 218.433 116.186H219.155C219.26 116.187 219.363 116.163 219.457 116.118C219.552 116.072 219.634 116.006 219.699 115.923L221.33 113.954C221.363 113.911 221.407 113.876 221.456 113.852C221.505 113.829 221.56 113.817 221.615 113.818L226.874 113.933C226.887 113.934 226.901 113.938 226.912 113.945C226.924 113.952 226.934 113.962 226.941 113.974C226.949 113.985 226.953 113.998 226.955 114.012C226.956 114.025 226.955 114.039 226.95 114.052L224.788 120.21C224.699 120.435 224.788 120.677 225.026 120.677H226.05C226.166 120.677 226.281 120.647 226.383 120.591C226.484 120.534 226.57 120.453 226.632 120.354L230.841 114.069C230.849 114.057 230.86 114.047 230.873 114.04C230.885 114.034 230.899 114.03 230.914 114.031L233.722 114.103C233.862 114.103 234.35 114.103 234.499 114.103C236.411 114.103 237.621 113.487 237.621 112.723C237.621 111.959 236.406 111.353 234.499 111.353Z" fill="#3F3D56"/>
<path d="M228.046 162.165C228.015 162.141 227.977 162.128 227.938 162.128C227.898 162.128 227.86 162.141 227.829 162.165L221.088 167.555C221.068 167.571 221.053 167.591 221.042 167.614C221.031 167.637 221.025 167.662 221.024 167.687V177.618C221.024 177.64 221.033 177.662 221.049 177.679C221.064 177.696 221.086 177.706 221.109 177.707H225.782C225.805 177.706 225.826 177.696 225.842 177.679C225.858 177.662 225.867 177.64 225.867 177.618V171.561C225.868 171.539 225.878 171.517 225.894 171.501C225.911 171.485 225.933 171.477 225.956 171.477H229.932C229.955 171.477 229.976 171.485 229.992 171.501C230.008 171.517 230.017 171.539 230.017 171.561V177.605C230.017 177.628 230.026 177.65 230.042 177.666C230.058 177.683 230.079 177.693 230.102 177.694H234.775C234.798 177.693 234.819 177.683 234.835 177.666C234.851 177.65 234.86 177.628 234.86 177.605V167.674C234.86 167.649 234.854 167.624 234.843 167.601C234.832 167.578 234.816 167.558 234.796 167.542L228.046 162.165Z" fill="#3F3D56"/>
<path d="M236.699 166.49L228.53 159.95C228.362 159.817 228.154 159.746 227.94 159.746C227.724 159.746 227.515 159.817 227.345 159.95L223.789 162.84V161.019C223.79 161.008 223.788 160.996 223.784 160.986C223.78 160.975 223.774 160.965 223.766 160.957C223.758 160.948 223.748 160.942 223.738 160.937C223.727 160.933 223.716 160.93 223.704 160.93H221.113C221.101 160.93 221.09 160.933 221.079 160.937C221.069 160.942 221.059 160.948 221.051 160.957C221.043 160.965 221.037 160.975 221.033 160.986C221.029 160.996 221.027 161.008 221.028 161.019V165L219.184 166.515C219.119 166.566 219.064 166.63 219.025 166.703C218.985 166.776 218.962 166.857 218.955 166.94C218.95 167.025 218.964 167.11 218.994 167.189C219.024 167.269 219.07 167.341 219.129 167.402C219.185 167.459 219.251 167.503 219.324 167.534C219.397 167.564 219.475 167.58 219.554 167.581C219.692 167.58 219.827 167.534 219.936 167.449L227.88 161.058C227.899 161.051 227.92 161.051 227.94 161.058C227.958 161.053 227.977 161.053 227.995 161.058L235.943 167.424C236.035 167.496 236.146 167.54 236.262 167.552C236.378 167.563 236.496 167.541 236.6 167.488C236.704 167.435 236.791 167.353 236.85 167.252C236.909 167.151 236.938 167.035 236.933 166.919C236.925 166.836 236.9 166.755 236.86 166.682C236.819 166.609 236.765 166.545 236.699 166.494V166.49Z" fill="#3F3D56"/>
<path opacity="0.3" d="M403.466 110.402H257.111C256.82 110.402 256.584 110.638 256.584 110.928V114.544C256.584 114.835 256.82 115.07 257.111 115.07H403.466C403.757 115.07 403.993 114.835 403.993 114.544V110.928C403.993 110.638 403.757 110.402 403.466 110.402Z" fill="#6C63FF"/>
<path opacity="0.3" d="M403.466 166.392H257.111C256.82 166.392 256.584 166.628 256.584 166.919V170.534C256.584 170.825 256.82 171.061 257.111 171.061H403.466C403.757 171.061 403.993 170.825 403.993 170.534V166.919C403.993 166.628 403.757 166.392 403.466 166.392Z" fill="#6C63FF"/>
<path d="M403.467 118.724H373.509C373.218 118.724 372.982 118.96 372.982 119.251V128.808C372.982 129.099 373.218 129.334 373.509 129.334H403.467C403.758 129.334 403.993 129.099 403.993 128.808V119.251C403.993 118.96 403.758 118.724 403.467 118.724Z" fill="#000041"/>
<path d="M403.467 174.744H373.509C373.218 174.744 372.982 174.98 372.982 175.271V184.828C372.982 185.119 373.218 185.354 373.509 185.354H403.467C403.758 185.354 403.993 185.119 403.993 184.828V175.271C403.993 174.98 403.758 174.744 403.467 174.744Z" fill="#000041"/>
<path d="M410.654 193.6L409.919 194.449C409.919 194.449 400.977 195.298 401.338 196.736C401.699 198.175 412.107 194.805 412.107 194.805L410.654 193.6Z" fill="#FFC1C7"/>
<path d="M426.865 192.874C426.865 192.874 417.307 196.27 412.107 194.81L414.525 199.644C414.525 199.644 426.865 199.279 429.045 197.097C431.224 194.916 426.865 192.874 426.865 192.874Z" fill="#FE7700"/>
<path opacity="0.1" d="M426.865 192.874C426.865 192.874 417.307 196.27 412.107 194.81L414.525 199.644C414.525 199.644 426.865 199.279 429.045 197.097C431.224 194.916 426.865 192.874 426.865 192.874Z" fill="black"/>
<path d="M420.391 166.948C423.931 166.948 426.801 164.081 426.801 160.544C426.801 157.007 423.931 154.14 420.391 154.14C416.85 154.14 413.98 157.007 413.98 160.544C413.98 164.081 416.85 166.948 420.391 166.948Z" fill="#FFC1C7"/>
<path d="M425.871 166.558C426.098 166.98 426.384 167.367 426.721 167.708C427.599 168.663 428.648 169.445 429.813 170.017C426.173 170.757 422.496 171.304 418.798 171.655C419.189 170.28 418.675 168.811 417.987 167.564C417.298 166.316 416.415 165.149 415.981 163.786L420.314 163.905C421.1 163.905 421.891 163.948 422.676 163.905C423.267 163.876 424.244 163.523 424.8 163.655C425.922 163.922 425.353 165.531 425.871 166.558Z" fill="#FFC1C7"/>
<path d="M440.416 196.622L444.044 200.972C444.044 200.972 450.085 215.113 436.916 216.547C423.747 217.982 413.93 215.457 413.93 215.457C413.93 215.457 408.607 212.91 408.483 214.854C408.36 216.798 407.88 222.226 404.975 227.543L402.426 233.345C402.036 233.761 401.747 234.261 401.58 234.806C401.413 235.351 401.372 235.927 401.461 236.489C401.822 238.302 393.352 238.904 393.475 236.489C393.475 236.489 394.686 234.435 394.686 233.226C394.686 232.016 396.619 229.118 396.619 229.118L400.127 211.718C400.127 211.718 399.885 202.771 408.114 204.465C416.342 206.158 428.08 204.1 428.08 204.1L430.739 194.797L440.416 196.622Z" fill="#575A89"/>
<path opacity="0.1" d="M440.416 196.622L444.044 200.972C444.044 200.972 450.085 215.113 436.916 216.547C423.747 217.982 413.93 215.457 413.93 215.457C413.93 215.457 408.607 212.91 408.483 214.854C408.36 216.798 407.88 222.226 404.975 227.543L402.426 233.345C402.036 233.761 401.747 234.261 401.58 234.806C401.413 235.351 401.372 235.927 401.461 236.489C401.822 238.302 393.352 238.904 393.475 236.489C393.475 236.489 394.686 234.435 394.686 233.226C394.686 232.016 396.619 229.118 396.619 229.118L400.127 211.718C400.127 211.718 399.885 202.771 408.114 204.465C416.342 206.158 428.08 204.1 428.08 204.1L430.739 194.797L440.416 196.622Z" fill="black"/>
<path d="M456.805 211.365V214.994C456.805 215.106 456.761 215.214 456.681 215.294C456.601 215.374 456.493 215.418 456.381 215.418C456.268 215.418 456.16 215.374 456.08 215.294C456.001 215.214 455.956 215.106 455.956 214.994V211.972C455.956 211.86 455.911 211.752 455.831 211.672C455.752 211.593 455.644 211.548 455.531 211.548H447.536C447.423 211.548 447.315 211.593 447.236 211.672C447.156 211.752 447.111 211.86 447.111 211.972V214.994C447.111 215.106 447.067 215.214 446.987 215.294C446.907 215.374 446.799 215.418 446.687 215.418C446.574 215.418 446.466 215.374 446.386 215.294C446.306 215.214 446.262 215.106 446.262 214.994V211.365C446.262 211.253 446.306 211.145 446.386 211.065C446.466 210.986 446.574 210.941 446.687 210.941H456.364C456.421 210.939 456.478 210.948 456.531 210.968C456.585 210.989 456.634 211.019 456.675 211.059C456.716 211.099 456.749 211.146 456.772 211.199C456.794 211.252 456.805 211.308 456.805 211.365Z" fill="#3C354C"/>
<path d="M419.567 242.346C419.54 242.968 419.751 243.577 420.156 244.049C420.561 244.522 421.131 244.823 421.75 244.893L479.048 246.306C479.073 246.308 479.098 246.305 479.121 246.297C479.145 246.289 479.166 246.276 479.184 246.259C479.21 246.238 479.227 246.207 479.231 246.174L479.992 242.643C480.033 242.442 480.052 242.237 480.047 242.032L478.823 216.411C478.811 215.991 478.688 215.581 478.466 215.223L477.617 213.797C477.588 213.752 477.552 213.712 477.511 213.678C477.436 213.622 477.345 213.592 477.251 213.593L423.301 214.396C422.673 214.405 422.073 214.652 421.622 215.089C421.171 215.525 420.904 216.116 420.875 216.742L419.567 242.346Z" fill="#3F3D56"/>
<path opacity="0.1" d="M477.498 213.691L479.197 246.276L479.244 246.191L480.004 242.66C480.046 242.459 480.065 242.254 480.06 242.049L478.836 216.428C478.824 216.008 478.701 215.598 478.479 215.24L477.63 213.814C477.594 213.765 477.549 213.723 477.498 213.691Z" fill="black"/>
<path d="M426.806 196.304C426.806 196.304 437.876 192.149 444.044 200.972C444.044 200.972 445.616 214.629 439.325 215.232C433.033 215.834 424.809 215.715 422.872 213.661C420.935 211.607 408.717 205.806 408.717 205.806C408.717 205.806 402.634 202.708 401.445 206.735C400.255 210.763 400.128 211.73 400.128 211.73C400.128 211.73 393.836 216.322 391.296 217.167C391.296 217.167 389.597 219.586 388.637 219.586C387.677 219.586 381.742 220.914 382.345 216.441L392.146 207.499L401.942 197.95C401.942 197.95 404.724 193.842 411.865 196.015C416.602 197.424 421.407 198.594 426.262 199.521L426.806 196.304Z" fill="#575A89"/>
<path d="M401.096 236.265C401.096 236.265 403.394 242.066 401.461 242.792C399.528 243.517 395.412 243.034 395.412 243.034C395.412 243.034 390.569 242.427 389.362 242.55C388.156 242.673 383.19 241.701 383.916 239.77C384.643 237.839 388.394 238.319 388.394 238.319L391.792 236.748C391.792 236.748 392.158 235.539 393.003 236.023C393.848 236.507 396.257 238.319 401.096 236.265Z" fill="#CBCEDA"/>
<path d="M388.513 219.094C388.513 219.094 391.062 224.772 386.941 224.288C382.821 223.804 379.681 222.96 378.475 222.841C377.268 222.722 374.019 221.602 374.524 219.365C374.551 219.225 374.563 219.083 374.558 218.941C374.558 218.639 374.983 218.054 378.233 218.143C378.233 218.143 380.65 218.143 381.631 216.445C381.618 216.441 385.246 221.033 388.513 219.094Z" fill="#CBCEDA"/>
<path d="M415.977 170.755C415.977 170.755 424.686 165.319 431.946 170.755C439.206 176.192 444.044 200.972 444.044 200.972L427.226 197.225C427.226 197.225 426.504 194.326 425.527 193.829C424.55 193.333 424.435 191.283 424.435 191.283C424.435 191.283 419.235 189.713 419.596 183.669C419.957 177.626 415.977 170.755 415.977 170.755Z" fill="#FE7700"/>
<path d="M420.455 170.997H415.977C415.977 170.997 413.314 174.019 412.952 181.632L411.5 187.688C411.5 187.688 408.475 194.941 410.289 196.151C412.103 197.36 415.616 197.237 416.338 194.822C417.06 192.408 422.048 178.373 422.048 178.373L420.455 170.997Z" fill="#FE7700"/>
<path d="M419.171 152.209C420.281 151.757 421.495 151.62 422.677 151.815C423.86 152.01 424.965 152.528 425.871 153.312C428.194 155.383 428.662 158.766 429.269 161.8C429.877 164.835 431.041 168.255 433.942 169.439C432.643 169.614 431.325 169.575 430.038 169.325L434.392 173.225L427.056 170.836C424.753 170.084 422.336 169.325 419.953 169.749C416.002 170.449 413.25 174.163 409.456 175.466L409.881 173.407H407.332C407.94 172.959 408.438 172.379 408.789 171.71C408.67 171.563 408.523 171.443 408.355 171.355C408.188 171.268 408.005 171.215 407.816 171.201C406.754 164.584 410.688 158.044 415.807 153.728C416.818 152.88 417.931 152.065 419.231 151.853C420.531 151.64 422.052 152.222 422.506 153.457" fill="#3C354C"/>
</g>
<defs>
<clipPath id="clip0">
<rect width="500" height="254" fill="white"/>
</clipPath>
</defs>
</svg>
