<?xml version="1.0" encoding="utf-8"?>
<!-- Generator: Adobe Illustrator 21.0.0, SVG Export Plug-In . SVG Version: 6.00 Build 0)  -->
<svg version="1.1" id="Capa_1" xmlns="http://www.w3.org/2000/svg" xmlns:xlink="http://www.w3.org/1999/xlink" x="0px" y="0px"
	 viewBox="0 0 566 246" style="enable-background:new 0 0 566 246;" xml:space="preserve">
<style type="text/css">
	.st0{fill-rule:evenodd;clip-rule:evenodd;fill:#6D1DD4;}
</style>
<g>
	<path class="st0" d="M240.3,123.3c-5.5-14.5-17.7-24.6-32-24.6c-14.3,0-26.5,10.1-32,24.6H240.3z M292.9,19.2h34.3V170
		c0,16,17.1,11.5,17.1,11.5l9.1,27.2c-7.5,2.9-18.1,5.3-30.9,4.2c-26.9-2.2-29.6-29.4-29.6-29.4V19.2z M525.8,123.3
		c-5.5-14.5-17.7-24.6-32-24.6c-14.2,0-26.5,10.1-32,24.6H525.8z M492.7,67.7c38.8,0,70.3,33.2,70.3,74.2c0,3.7-0.3,7.3-0.8,10.9
		H460.4c4.5,16.9,17.7,29.1,33.4,29.1c1,0,2-0.1,3-0.2c0.8,0.1,1.6,0.1,2.5,0.1c13.5,0,25.4-6.8,32.8-17.2h0l24.9,20.3
		c-13.4,18.9-35.5,31.2-60.4,31.2c-37.3,0-68.1-27.5-73.4-63.3h0c-0.5-3.5-0.8-7.2-0.8-10.9C422.4,100.9,453.8,67.7,492.7,67.7z
		 M362.9,183.6c0,0,2.7,27.2,29.6,29.4c17.9,1.5,31.4-3.9,38.4-7.7l-16.6-23.8c0,0-17.1,4.5-17.1-11.5V19.2h-34.2V183.6z M55.7,3.1
		H90v33.3h50.3v26.8l-5.1,6.5L51,176.4h76.6c3.4,12.8,13,25,22.1,34.1L90,210.1v32.8H55.7v-33L3,209.7V182L91.6,69.6H5.4V36.3h50.3
		V3.1z M207.2,67.7c38.9,0,70.3,33.2,70.3,74.2c0,3.7-0.3,7.3-0.8,10.9H174.9c4.5,16.9,17.7,29.1,33.4,29.1c1,0,2-0.1,3-0.2
		c0.8,0.1,1.6,0.1,2.5,0.1c13.5,0,25.4-6.8,32.8-17.2l24.9,20.3C258.1,203.7,236,216,211.1,216c-37.3,0-68.1-27.5-73.4-63.3h0
		c-0.5-3.5-0.8-7.2-0.8-10.9C136.9,100.9,168.4,67.7,207.2,67.7z"/>
</g>
</svg>
